<svg width="154" height="36" viewBox="0 0 154 36" fill="none" xmlns="http://www.w3.org/2000/svg">
<rect width="36" height="36" rx="18" fill="#EEF3FD"/>
<path d="M12.9117 13.1381C12.9117 14.2939 11.9489 15.2309 10.7612 15.2309C9.57351 15.2309 8.61071 14.2939 8.61071 13.1381C8.61071 11.9822 9.57351 11.0452 10.7612 11.0452C11.9489 11.0452 12.9117 11.9822 12.9117 13.1381Z" fill="#CDD9F1"/>
<path d="M27.3644 24.2998H8.63442C7.60517 24.2998 6.91124 23.2756 7.31668 22.355L9.04697 18.4259C9.3864 17.6551 10.3428 17.3478 11.0871 17.7703L13.5096 19.1456C13.7909 19.3053 14.1474 19.2604 14.3777 19.0363L22.4206 11.209C23.1648 10.4847 24.4305 10.7617 24.7845 11.7263L28.7145 22.4353C29.0479 23.344 28.3558 24.2998 27.3644 24.2998Z" fill="#CDD9F1"/>
<rect x="88" y="26" width="66" height="6" rx="3" fill="#CDD9F1"/>
<rect x="88" y="14" width="66" height="6" rx="3" fill="#CDD9F1"/>
<rect x="88" y="2" width="66" height="6" rx="3" fill="#CDD9F1"/>
<rect x="42" y="2" width="29" height="6" rx="3" fill="#CDD9F1"/>
<rect x="42" y="12" width="40" height="6" rx="3" fill="#CDD9F1"/>
<circle cx="48" cy="29" r="6" fill="#CDD9F1"/>
<circle cx="62" cy="29" r="6" fill="#CDD9F1"/>
<circle cx="76" cy="29" r="6" fill="#CDD9F1"/>
</svg>
