<svg width="160" height="74" viewBox="0 0 160 74" fill="none" xmlns="http://www.w3.org/2000/svg">
<rect width="40" height="40" rx="20" fill="#EEF3FD"/>
<path d="M14.3472 15.5981C14.3472 16.8823 13.2774 17.9234 11.9577 17.9234C10.6381 17.9234 9.56832 16.8823 9.56832 15.5981C9.56832 14.3138 10.6381 13.2727 11.9577 13.2727C13.2774 13.2727 14.3472 14.3138 14.3472 15.5981Z" fill="#CDD9F1"/>
<path d="M30.4057 28H9.59467C8.45106 28 7.68003 26.862 8.13051 25.8391L10.0531 21.4734C10.4302 20.617 11.4929 20.2755 12.3199 20.745L15.0115 22.2731C15.3241 22.4505 15.7202 22.4006 15.976 22.1516L24.9126 13.4547C25.7395 12.6499 27.1458 12.9577 27.5392 14.0294L31.9058 25.9284C32.2764 26.9379 31.5073 28 30.4057 28Z" fill="#CDD9F1"/>
<rect x="56" width="72" height="6" rx="3" fill="#CDD9F1"/>
<rect x="56" y="12" width="72" height="6" rx="3" fill="#CDD9F1"/>
<rect x="56" y="32" width="104" height="6" rx="3" fill="#CDD9F1"/>
<rect x="56" y="44" width="104" height="6" rx="3" fill="#CDD9F1"/>
<rect x="56" y="56" width="104" height="6" rx="3" fill="#CDD9F1"/>
<rect x="56" y="68" width="104" height="6" rx="3" fill="#CDD9F1"/>
<circle cx="6" cy="52" r="6" fill="#CDD9F1"/>
<circle cx="20" cy="52" r="6" fill="#CDD9F1"/>
<circle cx="34" cy="52" r="6" fill="#CDD9F1"/>
</svg>
